<svg xmlns="http://www.w3.org/2000/svg" viewBox="0 0 8.87 8.88"><defs><style>.cls-1{fill:#1d1d1b;}</style></defs><g id="Ebene_2" data-name="Ebene 2"><g id="Ebene_1-2" data-name="Ebene 1"><g id="QSSwQy"><path class="cls-1" d="M6.15,8.87H8.38a.48.48,0,0,0,.49-.49V.48A.47.47,0,0,0,8.39,0H.49A.48.48,0,0,0,0,.5V8.39a.47.47,0,0,0,.48.48H4.59c.11,0,.14,0,.14-.14,0-1,0-2.11,0-3.16V5.45h-1c-.09,0-.12,0-.11-.12V4.2c0-.1,0-.12.12-.12h.87c.2,0,.17,0,.17-.18,0-.4,0-.81,0-1.21A1.5,1.5,0,0,1,6.13,1.34a5.9,5.9,0,0,1,1.26,0c.11,0,.13,0,.12.15v1c0,.15,0,.15-.15.15s-.52,0-.78,0A.39.39,0,0,0,6.17,3c0,.35,0,.7,0,1l0,0h1.2c.08,0,.11,0,.09.11l-.06.47c0,.26-.07.52-.1.79H6.15Z"/><path class="cls-1" d="M6.15,8.87V5.45H7.3c0-.27.07-.53.1-.79l.06-.47c0-.09,0-.11-.09-.11H6.17l0,0c0-.34,0-.69,0-1a.39.39,0,0,1,.41-.39c.26,0,.52,0,.78,0s.15,0,.15-.15V1.51c0-.1,0-.14-.12-.15a5.9,5.9,0,0,0-1.26,0A1.5,1.5,0,0,0,4.77,2.69c0,.4,0,.81,0,1.21,0,.21,0,.18-.17.18H3.68c-.09,0-.13,0-.12.12V5.33c0,.09,0,.12.11.12h1v.13c0,1,0,2.11,0,3.16,0,.11,0,.14-.14.14H.48A.47.47,0,0,1,0,8.39V.5A.48.48,0,0,1,.49,0h7.9a.47.47,0,0,1,.48.48v7.9a.48.48,0,0,1-.49.49H6.15Z"/></g></g></g></svg>