<svg xmlns="http://www.w3.org/2000/svg" viewBox="0 0 8.94 8.94"><defs><style>.cls-1{fill:#1d1d1b;}</style></defs><g id="Ebene_2" data-name="Ebene 2"><g id="Ebene_1-2" data-name="Ebene 1"><path class="cls-1" d="M4.47,8.7h3c.22,0,.43,0,.64,0a.61.61,0,0,0,.48-.25.65.65,0,0,0,.12-.4V.88A.63.63,0,0,0,8.51.4.61.61,0,0,0,8.06.24H.79A.55.55,0,0,0,.37.47.66.66,0,0,0,.24.9V7.8c0,.11,0,.23,0,.34a.59.59,0,0,0,.33.5.83.83,0,0,0,.35.06H4.47M0,4.47V.75A.72.72,0,0,1,.22.21.67.67,0,0,1,.72,0H8.19a.75.75,0,0,1,.53.2.69.69,0,0,1,.22.53v7.5a.71.71,0,0,1-.62.7H.73A.71.71,0,0,1,0,8.37a.65.65,0,0,1,0-.2V4.47"/><path class="cls-1" d="M4.75,4l.12-.14a1.29,1.29,0,0,1,.85-.48,1.91,1.91,0,0,1,1,.13,1.16,1.16,0,0,1,.6.7,2.2,2.2,0,0,1,.12.61c0,.17,0,.33,0,.49,0,.69,0,1.38,0,2.07,0,0,0,.07,0,.11H6.31c-.11,0-.11,0-.11-.11,0-.67,0-1.33,0-2a2.12,2.12,0,0,0-.05-.5.56.56,0,0,0-.54-.44,1.06,1.06,0,0,0-.39.06.63.63,0,0,0-.36.45,1.88,1.88,0,0,0-.06.53V7.32s0,.06,0,.09,0,0,0,0H3.64c-.09,0-.1,0-.1-.1V3.51c0-.09,0-.1.09-.1h1c.05,0,.06,0,.06.07v.46h0"/><path class="cls-1" d="M1.5,5.42v-2a0,0,0,0,1,0,0H2.63c.11,0,.12,0,.12.12V7.34c0,.1,0,.11-.11.11H1.58c-.07,0-.09,0-.09-.09V5.42Z"/><path class="cls-1" d="M2.12,2.86A.72.72,0,0,1,1.4,2.1a.71.71,0,0,1,.73-.69.72.72,0,0,1,.72.74.72.72,0,0,1-.73.71"/></g></g></svg>