<svg xmlns="http://www.w3.org/2000/svg" viewBox="0 0 8.8 7.18"><defs><style>.cls-1{fill:#1d1d1b;}</style></defs><g id="Ebene_2" data-name="Ebene 2"><g id="Ebene_1-2" data-name="Ebene 1"><path class="cls-1" d="M0,6.37v0l.47.25a5.12,5.12,0,0,0,1.84.52A5.25,5.25,0,0,0,4.16,7,4.69,4.69,0,0,0,5.5,6.41a4.82,4.82,0,0,0,1.06-.9,5.41,5.41,0,0,0,1-1.64A4.92,4.92,0,0,0,7.89,2,.3.3,0,0,1,8,1.67h0A3.43,3.43,0,0,0,8.8.85a3.25,3.25,0,0,1-1,.27,1.91,1.91,0,0,0,.74-1l-.1,0a3.81,3.81,0,0,1-1,.37.12.12,0,0,1-.13,0A1.72,1.72,0,0,0,6.45,0,1.75,1.75,0,0,0,4.93.42a1.75,1.75,0,0,0-.65,1.49c0,.1,0,.2,0,.32A5.21,5.21,0,0,1,.58.34a1.8,1.8,0,0,0,.55,2.4,1.87,1.87,0,0,1-.81-.21,1.85,1.85,0,0,0,.4,1.15,1.87,1.87,0,0,0,1,.64,2,2,0,0,1-.77,0A1.82,1.82,0,0,0,2.64,5.62,3.74,3.74,0,0,1,0,6.37"/></g></g></svg>