<svg xmlns="http://www.w3.org/2000/svg" viewBox="0 0 8.5 8.5"><defs><style>.cls-1{fill:#1d1d1b;}</style></defs><g id="Ebene_2" data-name="Ebene 2"><g id="Ebene_1-2" data-name="Ebene 1"><path class="cls-1" d="M7.78,4.27v-2A1.49,1.49,0,0,0,6.21.72H2.27A1.5,1.5,0,0,0,.72,2.27v4A1.49,1.49,0,0,0,2.25,7.78h4A1.48,1.48,0,0,0,7.78,6.25v-2M8.5,2V6.54s0,0,0,.08a2.18,2.18,0,0,1-.85,1.44,2.55,2.55,0,0,1-1.08.44H2a.19.19,0,0,0-.08,0A2.14,2.14,0,0,1,.45,7.62,2.52,2.52,0,0,1,0,6.54V2a.38.38,0,0,0,0-.1A2.21,2.21,0,0,1,.93.41,2.62,2.62,0,0,1,2,0H6.54s0,0,.08,0A2.18,2.18,0,0,1,8.06.88,2.55,2.55,0,0,1,8.5,2"/><path class="cls-1" d="M2.79,4.25A1.47,1.47,0,0,0,4.25,5.73,1.5,1.5,0,0,0,5.73,4.25,1.47,1.47,0,0,0,4.27,2.79,1.45,1.45,0,0,0,2.79,4.25m3.58,0a2.11,2.11,0,1,1-4.22,0A2.08,2.08,0,0,1,4.23,2.15a2.1,2.1,0,0,1,2.14,2.1"/><path class="cls-1" d="M7.09,1.91a.48.48,0,0,1-.5.47.48.48,0,0,1,0-1,.48.48,0,0,1,.49.49"/></g></g></svg>