<svg xmlns="http://www.w3.org/2000/svg" viewBox="0 0 10.59 7.57"><g id="Ebene_2" data-name="Ebene 2"><g id="Ebene_1-2" data-name="Ebene 1"><g id="uyRTXe"><path d="M9.58,7.57H1A1.14,1.14,0,0,1,0,6.4c0-.86,0-1.71,0-2.57S0,2,0,1.14A1.12,1.12,0,0,1,.73.08,1.47,1.47,0,0,1,1,0H9.6l.2.05a1.12,1.12,0,0,1,.79,1.07c0,.78,0,1.55,0,2.33v3a1.1,1.1,0,0,1-.53.94A1.17,1.17,0,0,1,9.58,7.57Zm-.07-7H1.13s0,0,.05.05c1.32,1.31,2.63,2.63,4,4a.23.23,0,0,0,.38,0L9.42.68ZM1.67,7h7.2L6.39,4.52l-.91.91a.2.2,0,0,1-.33,0l-.68-.69-.26-.26ZM6.81,4.1l.05.06,2.7,2.71c.12.11.17.12.29,0A.48.48,0,0,0,10,6.7a1.12,1.12,0,0,0,0-.31V.91Zm-3,0L.64.93V6.54A.39.39,0,0,0,.9,7Z"/></g></g></g></svg>