<svg xmlns="http://www.w3.org/2000/svg" viewBox="0 0 237.64 279.49"><defs><style>.cls-1{fill:white;}.cls-2{fill:none;}</style></defs><g id="Ebene_2" data-name="Ebene 2"><g id="Ebene_1-2" data-name="Ebene 1"><path class="cls-1" d="M83.61,118.94l-3,0c0,1,0,2,0,3l3,0c0-.46,0-.93,0-1.4s0-1.08,0-1.6Zm3.11,5.3h-3v.9h0c0,.66,0,.94,0,.94h0c0-.08,0-.37,0-.82v-.31l-3,0,0,.85a3,3,0,0,0,3,3.25H85l.88-.88c.88-.88.88-1.7.88-3.07v-.9Zm-.12-5.44-3,.14h0c0,.16,0,.29,0,.43s0,.18,0,.28h0c0,.27,0,.61,0,1.2h0v.35l3,0c0-1.14,0-1.57-.07-2,0-.13,0-.26,0-.41Z"/><path class="cls-1" d="M83.56,116.29l-3,0c0,1.67,0,2.34,0,2.77l6-.19v-.35l-3,0c0,.12,0,.23,0,.35h0c0-.46,0-1.13,0-2.65Z"/><path class="cls-1" d="M128.26,82.51l-1.13,0-2,.07.09,3,1.79-.06h.19l1,0v-3Zm-6.06.16-3,0,0,3,3,0-.06-3Zm-6,.07h-3v3h3l0-3Zm-9,0,0,3,3,0v-3l-3,0Zm-6-.06,0,3h1.2l1.8,0,0-3-3,0Zm-6-.06,0,3h1.41l1.59,0,0-3-3,0Zm-3.1,0a22.78,22.78,0,0,0-3.44.34l.53,3c.47-.08,1-.15,1.43-.19h.41l.51,0h.63l-.07-3Zm-6.83,1.24a20.46,20.46,0,0,0-3.19,1.48l1.49,2.6.66-.36h0l.11-.05h.44l0,0h.2l.08,0h.45l.73-.29-1-2.82Zm-6,3.39c-.85.66-1.69,1.35-2.47,2.05l2,2.24,0,0h0l0,0h0c.4-.35.8-.7,1.22-1h0l.06,0h0l0,0h0l0,0h0l0,0h0l0,0h.29v0h0l0,0h0l0,0h0l0,0h0l0,0h0l.06,0h0l0,0h0l0,0h0l.06,0h0l0-.05h0l-1.83-2.38Zm-4.8,4.28q-1.14,1.19-2.16,2.43l2.32,1.9h0v0h.05v0h0l0,0h0l0,0h0l0,0h0v0h0l0,0h0l0,0h0c.56-.67,1.14-1.32,1.76-2l-2.16-2.09Zm-4.11,5c-.61.9-1.19,1.84-1.72,2.78l2.62,1.46,0-.09h0l0,0h0l0,0h0v0h0v0h.11v0h0l0,0h0l0,0h0l0,0h0l0,0h0c.31-.52.63-1,1-1.55h0l0,0h0l0,0h0v0h.1l0,0h0l.06-.09-2.48-1.69Zm-3.18,5.71c-.44,1-.84,2-1.19,3l2.84,1c.33-1,.69-1.88,1.09-2.8l-2.74-1.21Zm-2.1,6.17c-.25,1-.47,2.11-.64,3.19l3,.47q.18-1.14.42-2.25h0v0h0v0h0v0h0v0h0v0h0v0h0v0h0c0-.13.06-.25.09-.38l-2.92-.72Zm-1,6.39c-.07.89-.12,1.81-.14,2.72V118l3,0v-.15c0-.1,0-.2,0-.31h0v0h0v0h0c0-.5,0-1,.06-1.49h0v0h0v-.08h0v0h0v0h0v-.06h0v0h0v0h0v0h0v0h0v-.06h0v0h0v0h0c0-.06,0-.12,0-.18l-3-.25Zm3,6.24-3,.31a8.62,8.62,0,0,0,1.42,4.27L68,123.88l-.17-.27h0A6.6,6.6,0,0,1,67.1,121Zm3.2,4.71-1.75,2.44a8.86,8.86,0,0,1,1.69,1.54l2.27-2a14,14,0,0,0-1.21-1.22h0l0,0h-.13l0,0h0l-.35-.28h0v0h0l-.39-.28Zm4,4.44-2.55,1.58q.2.31.39.66a3.77,3.77,0,0,0,3.29,2.08,4,4,0,0,0,3.42-2.16l-2.55-1.59a2.72,2.72,0,0,1-.16.25h0a1.15,1.15,0,0,1-.55.45h-.13c-.23,0-.46-.17-.68-.57h0l-.45-.75Zm4.11-5c-.26.84-.52,1.67-.78,2.44h0c0,.11-.07.23-.11.34l2.83,1c.3-.88.6-1.81,1-3l-2.86-.88Zm6.4-13.56-.7.19a4.65,4.65,0,0,0-.52,1.81c0,1.12,0,2,0,2.69,0-.84,0-1.38-.06-1.38a6.36,6.36,0,0,0,0,1,3,3,0,0,1-.85,2h0a1.68,1.68,0,0,0-.33-.39h-.08a.3.3,0,0,0-.11-.06l-.43,1.11-1.3.81c0,.13-.1.26-.16.39h0c-.31.77-.62,1.67-.93,2.63l2.86.93c0-.12.07-.23.1-.33l.07.1,2.64-3.23a6,6,0,0,0,1.52-3.84l-1,0,.1-.32h1V114l-1.41-.4v-.17h0l0-.35h0a11.66,11.66,0,0,0-.34-1.48ZM89,114.69l-.83,2.89,2.89.82.82-2.88L89,114.69Zm5.77,1.65-.83,2.89,2.89.83.82-2.89-2.88-.83Zm5.77,1.66-.83,2.88,2.88.83.83-2.89-1.69-.48h0l-1.17-.33Zm5.76,1.65-.82,2.89,2.88.82.83-2.88-2.89-.83ZM112,121.3l-.83,2.89,2.89.83.83-2.89-1.34-.38h0L112,121.3Zm5.77,1.66-.83,2.88,2.89.83.82-2.89-.92-.26h0l-1.95-.56Zm5.77,1.65-.83,2.89,2.88.82.83-2.88-2.45-.71h0l-.42-.12Zm5.76,1.65-.82,2.89,2.88.83.83-2.89-2.89-.83Zm5.77,1.66-.82,2.88,2.68.77v2.07l1.42.88.75.47,3.15,1.94,1.25-3.48a5.58,5.58,0,0,0,.18-.58c0-.05,0-.1,0-.15h0l-.86-.28-1.65-1.26-.06.09h0l0,.05,1.2.89h0l-1.41-.46-.06.22-.09.31h0v0h0L140,132h0v-.09h0v-.64h-2.69l.72-2.49-2.89-.82Zm3-5.09c0,.79,0,1.59,0,2.39h0c0,1,0,2,0,3H140v0h0c0-.71,0-1.31,0-1.82h0v0h0c0-2.05,0-2.47,0-2.47a1.49,1.49,0,0,1,0,.21v-1.2Zm0-6v.08h0c0,.49,0,1,0,1.47v1.27h0c0,1,0,2,0,3H140V122h0v0c0-.45,0-1,0-1.66v-.51h0c0-.46,0-1,0-1.52s0-1-.07-1.48Zm.54-5.66h-.35a1.36,1.36,0,0,1,0,.2h0a2.89,2.89,0,0,0,0,.29,2.7,2.7,0,0,0,0,.28h0a5.14,5.14,0,0,0-.07.78h0v.49h0v.53h.29v0l-.29,0c0,1,0,1.94,0,2.91l1.79-.17h0v0h0v0h0c-.05-.54-.12-1.07-.21-1.61h0l-.15-.94h0c-.14-.86-.29-1.71-.4-2.56l-.46-.06h0l.46.06h0l-.46-.06v0Zm-.24,2.69v0h0v0Zm2.71,17.5H141v0h0a1.45,1.45,0,0,0-.09.22h0v0l1.41.46-1.2-.89Zm4.74-3.89h-.36a8.3,8.3,0,0,0-1.84,1.08h0l0,0h-.15l-.2.16,1.95,2.29a5.12,5.12,0,0,1,1.62-1l-1-2.83Zm2.95-.37-.22,3a13.44,13.44,0,0,1,1.8.29l.85.17.53-3-.63-.12h0l-1-.2h-.32l-.57-.08h-.44Zm6.87-2.78q-.09.44-.18.81h0v0h0v0h-.09l0,0h0a3.89,3.89,0,0,1-.79,1.49l2.2,2a8.31,8.31,0,0,0,1.85-4.25l-3-.54Zm3.42-6h-3c0,.31,0,.62,0,.94h0v0h0v0h0v0h0v0h0v0h0v0h0v0h0v0h0v.07h0c0,.57,0,1.13-.07,1.7l3,.17c.07-1.07.1-2.14.1-3.18Zm-.47-6.41-3,.44c0,.17.05.34.08.51h0v0h0v0h0v0h0v0h0v0h0v0h0v0h0v0h0c.06.47.11.94.15,1.42h0v0h0v0h0v0h0v0h0v0h0v0h0v0h0v0h0c0,.16,0,.31,0,.47l3-.21c-.08-1.09-.19-2.17-.35-3.21Zm-1.49-6.33-2.85.94.15.45h0v0h0v0h0v0h0v0h0v0h0v0h0v0h0v0h0l0,0h0v0h0v0h0c.09.31.18.62.26.93h0v0h0l0,.07h0v0h0v0h0v0h0v0h0v0h0v0h0v0h0v0h0v0h0v0h0v0h0v0h0v0h0v0h0c.05.2.1.4.14.6l2.92-.68c-.24-1.06-.54-2.12-.88-3.14Zm-2.61-6L151.88,101l.23.42h0v0h0l0,.06h0v0h0l0,.06h0v0h0v0h0v0h0v0h0v0h0v0h0v0h0v0h.08v0h0v0h0v0h.05v0h0l0,0h0v0h0v0h0c.14.29.28.57.41.86h0v0h0l0,.06h0v0h0v0h0l0,0h0v0h0v0h0v0h0v0h0v0h0v0h0v0h0l.09.19,2.75-1.19c-.44-1-.93-2-1.45-3Zm-3.67-5.41-2.32,1.9.24.3h0v0h0l0,0h0v0h0v0H149l0,0h0l0,0h0l.62.82h0l.08.11h0l0,0h0c.2.28.41.57.6.86l2.48-1.69c-.6-.89-1.26-1.77-1.95-2.62Zm-4.48-4.68-2,2.25h.11c.37.32.73.66,1.09,1h0v0h0v0h0l0,0h0l0,0h0l0,0h0v0h.24v0h.15v0h0v0h0v0h0v0h0v0h0l0,0h0l.13.14,2.17-2.07c-.76-.81-1.55-1.57-2.34-2.27Zm-5.45-3.84-1.43,2.64c.28.15.55.3.81.46h.09l0,0h.1l.05,0h0l0,0h0c.3.18.6.37.89.57h0l.08.06h.08l.06,0h0l.3.22,1.74-2.45a27.55,27.55,0,0,0-2.85-1.78Zm-6.32-2.42-.7,2.92a24.31,24.31,0,0,1,2.63.79h.13l.11,0,1.07-2.8a25.83,25.83,0,0,0-3.24-1Zm-6.33-.72v3h.66c.59,0,1.17,0,1.73.1h.29l.31-3a29.32,29.32,0,0,0-3-.16Z"/><path class="cls-1" d="M111.5,31l-1,0a22.12,22.12,0,0,0-2.44.22l.41,3,.73-.09h.35l.81,0h.26l.84,0V31Zm-6.74.94a24.6,24.6,0,0,0-3.21,1.16l1.21,2.75.6-.26h.33c.62-.24,1.25-.46,1.89-.64l-.82-2.89Zm-6.22,2.74a25.63,25.63,0,0,0-2.77,2l1.89,2.33a21.18,21.18,0,0,1,2.45-1.73l-1.57-2.56Zm-5.26,4.28a24.75,24.75,0,0,0-2.16,2.63l2.44,1.74c.39-.54.8-1.07,1.24-1.57h0l0-.06h0v0h0l0,0h0l0,0h0v0h0v0h0l0,0h0v0h.23l0,0h.08l0,0h0l0,0h0v0h0l0,0h0l.06-.08-2.18-2Zm-4,5.53A26.27,26.27,0,0,0,88,47.59l2.83,1a22.1,22.1,0,0,1,1-2.35h0v0h0v0h0l.12-.23-2.66-1.39Zm-2.28,6.43a23.09,23.09,0,0,0-.44,3.4l3,.17a21.67,21.67,0,0,1,.25-2.29h0v-.05h0v0h0v0h0v0h0v0h0v0h0v0h0v0h0v0h0l0-.13-2.94-.6Zm2.6,6.57-3,.25a25.82,25.82,0,0,0,.53,3.38l2.92-.67c-.06-.29-.12-.57-.18-.87h0v0h0v0h0v0h0c-.11-.61-.18-1.22-.24-1.84ZM91,63.29l-2.81,1.06a24.11,24.11,0,0,0,1.43,3.1L92.23,66c-.15-.28-.3-.57-.44-.86h0v0h-.06v0h0q-.37-.78-.69-1.59h0Zm2.86,5.25-2.41,1.78a25.85,25.85,0,0,0,2.2,2.6l2.15-2.09-.33-.35h0v0h-.07v0h0c-.54-.59-1-1.2-1.52-1.84ZM98,72.83l-1.85,2.36A24.45,24.45,0,0,0,99,77.11l1.52-2.59c-.56-.32-1.1-.67-1.62-1h-.14l0,0h0c-.24-.17-.47-.35-.7-.53Zm5.16,3L102,78.63a25.09,25.09,0,0,0,3.23,1.1l.77-2.9a21.11,21.11,0,0,1-2.84-1ZM109,77.39l-.36,3a25.24,25.24,0,0,0,3,.18H112l0-3h-1.27c-.53,0-1.06-.06-1.58-.12H109Zm8.9-.78-.62.19h-.29q-1,.25-2,.42l.47,3a22.62,22.62,0,0,0,3.33-.77l-.88-2.87Zm5.43-2.51c-.43.27-.86.53-1.31.77h0l0,0h-.4l-.87.43,1.26,2.72a24.81,24.81,0,0,0,3-1.64l-1.62-2.52Zm4.56-3.88c-.22.25-.45.49-.68.73h0v0H127l0,0h0c-.4.4-.82.79-1.25,1.15l1.94,2.29a26,26,0,0,0,2.44-2.37l-2.23-2Zm3.37-4.94a21.66,21.66,0,0,1-1.52,2.59l2.48,1.69a26.32,26.32,0,0,0,1.73-2.94l-2.69-1.34Zm1.89-5.67c0,.15,0,.3-.08.44h0v0h0v0h0v0h0v0h0v0h0c-.13.61-.29,1.21-.48,1.81h0v0h0v0h0v0h-.08l2.84.95a24.17,24.17,0,0,0,.86-3.32l-3-.54Zm3.21-6.28-3,.31.06.68h0v0h0v0h0v0h0v0h0v0h0v0h0v0h0v0h0v0h0v0h0v0h0v0h0v0h0v0h0v0h0v0h0v0h0v0h0v0h0v0h0v0h0c0,.26,0,.51,0,.76h0v.34l3,.11c0-.42,0-.85,0-1.27,0-.72-.05-1.43-.12-2.14Zm-1.6-6.61-2.79,1.1.18.46h0v0h0v0h0v0h0v0h0c.23.66.44,1.33.61,2h0v0h0v0h0v0l2.92-.7a24.67,24.67,0,0,0-1-3.26Zm-3.35-5.93L129,42.61h0v0h0v0h.05l0,0h0c.41.54.79,1.11,1.16,1.7h0v0h0v0h.1l.27.46,2.62-1.47a24.69,24.69,0,0,0-1.89-2.85ZM126.53,36l-1.8,2.39c.33.25.65.51,1,.78h0l0,0h.12l0,0h.46v0h.16l0,0h0l.47.45,2.11-2.13A23.76,23.76,0,0,0,126.53,36ZM120.6,32.7l-1.09,2.79c.73.29,1.45.62,2.16,1h.41l.14.07,1.46-2.62a24.72,24.72,0,0,0-3.08-1.45ZM114,31.1l-.31,3a21,21,0,0,1,3,.51l.71-2.92A24.31,24.31,0,0,0,114,31.1Z"/><path class="cls-2" d="M95.8,22.88c-8.53,0-14.49,3.9-17.51,12.06C73.24,48.55,68.13,62.13,63.07,75.73c-2.17,5.79-4.29,11.59-6.51,17.65a1.82,1.82,0,0,0,.36,1.84H184.44c.26-.33.51-.66.79-1,5.84-7,12.85-11.36,22.63-11s19.85.22,29.78.12V72.93a23.55,23.55,0,0,1-13.12,3.86C211.69,76.7,201,65.85,201.18,53.07a23.56,23.56,0,0,1,36.46-19.36V22.88Q166.74,22.87,95.8,22.88Z"/><path class="cls-2" d="M51.82,120.53c-13.8-.09-25,11.4-25,25.63,0,13.94,11.05,25.38,24.59,25.48S76.68,159.92,76.62,146,65.23,120.62,51.82,120.53Z"/><path class="cls-1" d="M207.86,83.22c-9.78-.35-16.79,4-22.63,11-.28.33-.53.66-.79,1H56.92a1.82,1.82,0,0,1-.36-1.84c2.22-6.06,4.34-11.86,6.51-17.65,5.06-13.6,10.17-27.18,15.22-40.79,3-8.16,9-12,17.51-12.06q70.92,0,141.84,0V.05q-71.4-.11-142.79,0c-19,0-30.54,8-37.39,25.67C48.87,47.83,40.4,70,31.69,92.05c-.79,2-2.68,4.33-4.57,5C10.15,102.7.07,116.2,0,134.16q-.09,42.29,0,84.59c0,1.06.09,2.11.19,3.28A1.82,1.82,0,0,0,2,223.7H25a1.82,1.82,0,0,1,1.8,1.82c0,10.15-.08,19.66,0,29.17.09,7.79,2.56,14.69,9,19.57,7.91,6,16.66,6.77,25.53,2.63,9.14-4.26,13.08-12.18,13.31-21.91s.08-19.28.06-29.11a1.82,1.82,0,0,1,1.81-1.82H237.64V83.34C227.71,83.44,217.78,83.58,207.86,83.22ZM51.4,171.64c-13.54-.1-24.58-11.54-24.59-25.48,0-14.23,11.21-25.72,25-25.63,13.41.09,24.73,11.75,24.8,25.5S65,171.73,51.4,171.64Z"/><path class="cls-1" d="M225.71,29.88a23.6,23.6,0,0,0-24.53,23.19C201,65.85,211.69,76.7,224.52,76.79a23.55,23.55,0,0,0,13.12-3.86V33.71A23.52,23.52,0,0,0,225.71,29.88Z"/></g></g></svg>
