<svg xmlns="http://www.w3.org/2000/svg" viewBox="0 0 289.47 235.96">
    <defs>
        <style>
            .cls-1,.cls-2{fill:white;}.cls-1{fill-rule:evenodd;}.cls-3{fill:none;stroke:white;stroke-miterlimit:10;stroke-width:5px;}
        </style>
    </defs>
    <g id="Ebene_2" data-name="Ebene 2">
        <g id="Ebene_1-2" data-name="Ebene 1">
            <path class="cls-1"
                  d="M116.91,175.47H104.09a1,1,0,0,1-1-.92c0-.66-.1-1.25-.1-1.83q0-23.58,0-47.15c0-10,5.65-17.53,15.1-20.7a5.08,5.08,0,0,0,2.55-2.77c4.85-12.29,9.57-24.64,14.36-37,3.82-9.83,10.24-14.29,20.84-14.31q40.47,0,80.94,0c10.39,0,16.86,4.53,20.63,14.19q7.16,18.33,14.23,36.69a5.17,5.17,0,0,0,3.72,3.61c7.86,2.37,14,10.28,14,18.36.15,16.81.06,33.61.05,50.41a10.53,10.53,0,0,1-.18,1.31H275.52a1,1,0,0,0-1,1v6.75c0,3.16.05,6.32,0,9.48-.2,8.23-5.48,13.76-13.12,13.79-7.83,0-13.31-5.44-13.52-13.75-.14-5.28-.05-10.57,0-16a1,1,0,0,0-1-1H145.62a1,1,0,0,0-1,1c0,5.48.1,10.86,0,16.23s-2.33,9.83-7.42,12.21a13,13,0,0,1-14.23-1.47c-3.57-2.72-4.94-6.56-5-10.9-.06-5.3,0-10.61,0-16.26A1,1,0,0,0,116.91,175.47Zm140.14-71.26a1,1,0,0,0,.94-1.36c-4.14-11.08-8.15-21.8-12.13-32.54-1.68-4.53-5-6.75-9.73-6.75q-39.88,0-79.77,0c-4.76,0-8.08,2.17-9.76,6.72Q142.37,81.65,138.11,93c-1.2,3.23-2.38,6.46-3.62,9.84a1,1,0,0,0,.94,1.36Zm17.52,28A14.05,14.05,0,0,0,260.87,118a14.24,14.24,0,0,0,.06,28.48A14,14,0,0,0,274.57,132.2Zm-156.66.06a14,14,0,0,0,13.7,14.2,14.31,14.31,0,0,0,14.06-14.27c0-7.67-6.35-14.16-13.82-14.21A14.06,14.06,0,0,0,117.91,132.26Z"/>
            <path class="cls-1"
                  d="M244.07,114a9,9,0,0,1,.36-1.74A5.72,5.72,0,0,1,245,114c0,5.27-.1,10.55-.1,15.81,0,3.28.09,6.57.16,9.85a1.84,1.84,0,0,0,.51,1.2c1.58-2.51-7.19-8.18-5.71-10.76,3-5.23,14.32-7.91,14.19-14-.15-7.12-2.27-12.57-8-16.83a10.65,10.65,0,0,0-6.63-2.12c-6.88,0-13.77.22-20.64,0-5.45-.2-9.36,2.25-12.62,6.13-3.73,4.46-5,9.72-4.63,15.42.49,8.11,4.18,14.93,8.93,21.29a2.5,2.5,0,0,1,.24.65l.45-.28v-1.46c0-7.36-.05-14.72,0-22.08a37.39,37.39,0,0,1,.53-4.3l.48,0c0,.32.1.64.1,1q0,4.78.05,9.58.06,16.88.11,33.74"/>
            <path class="cls-1" d="M227,146.7c0-.27,0-.55.07-1l2.23.22v1.75"/>
            <path class="cls-1" d="M241.41,80.55a13.16,13.16,0,1,0-13.31,13A13.2,13.2,0,0,0,241.41,80.55Z"/>
            <line class="cls-2" x1="258.01" y1="104.37" x2="134.45" y2="104.37"/>
            <path class="cls-2" d="M258,104.86H134.45a.5.5,0,0,1,0-1H258a.5.5,0,1,1,0,1Z"/>
            <g id="XFq8vc.tif">
                <path class="cls-3"
                      d="M83.67,181.83c0,5.38,0,10.77,0,16.15,0,7.7,0,15.4-.12,23.1a14.19,14.19,0,0,1-.6,4.75,11.08,11.08,0,0,1-7.19,6.86,10.89,10.89,0,0,1-10.08-1.51,10.74,10.74,0,0,1-4.76-9.35q0-38.46,0-76.92a7.4,7.4,0,0,0-.72-3c-1-2.34-4.64-2.16-5.94-.7a6.31,6.31,0,0,0-1.68,4.45q0,37.55,0,75.07c0,.71,0,1.41,0,2.11a9.54,9.54,0,0,1-.95,4.14A11.09,11.09,0,0,1,42,233.43a10.15,10.15,0,0,1-7.79-2.7c-2.64-2.38-3.58-5.46-3.59-8.9,0-14.05.08-28.1,0-42.14s.41-28.07-.27-42.1a3.84,3.84,0,0,0-1.81-3.32,50.3,50.3,0,0,1-5.4-4.37A54.67,54.67,0,0,1,18.66,125c-1.46-1.77-2.81-3.63-4.19-5.47-.47-.63-.86-1.31-1.3-2-.81-1.16-1.7-2.28-2.44-3.48-.86-1.39-1.6-2.85-2.39-4.28-.55-1-1.15-2-1.63-3.06s-.88-2.22-1.34-3.32c-.67-1.59-1.5-3.11-2-4.74C1.67,93.75,2.73,89,4.49,84.38c.75-2,1.63-3.88,2.48-5.8.74-1.68,1.48-3.36,2.3-5,1.1-2.21,2.23-4.42,3.44-6.58A50.85,50.85,0,0,1,16,61.71c1.65-2.26,3.43-4.43,5.26-6.53a25.27,25.27,0,0,1,10.06-7.35,44.16,44.16,0,0,1,10.89-2.57,112.25,112.25,0,0,1,22.52-.39c3.52.32,7,.6,10.56,1,2.4.28,4.78.73,7.17,1.09a42.86,42.86,0,0,0,11.2.27,46.5,46.5,0,0,0,9.11-2.1,1.3,1.3,0,0,0,.73-.56c.67-1.3,1.33-2.6,1.88-4,.87-2.1,1.7-4.22,2.46-6.36.89-2.5,1.73-5,2.52-7.55.7-2.25,1.26-4.55,2-6.81a18.88,18.88,0,0,1,1.21-2.9,5.11,5.11,0,0,1,2.44-2.64,9.9,9.9,0,0,1,9.22.64,8.47,8.47,0,0,1,3.93,8.75c-.25,1.23-.35,2.49-.61,3.72-.35,1.69-.75,3.37-1.18,5s-1,3.37-1.46,5c-.42,1.43-.81,2.87-1.34,4.26-1.07,2.78-2.17,5.55-3.34,8.28-1,2.3-2,4.61-3.18,6.8a8.34,8.34,0,0,1-4.29,3.94c-.9.35-1.78.74-2.69,1-2.58.84-5.14,1.79-7.77,2.41a67.5,67.5,0,0,1-8.81,1.48c-3,.29-6,.27-9,.26-1.21,0-1.67.28-1.59,1.52.11,1.9.29,3.8.3,5.7,0,5.85,0,11.71,0,17.56.07,5.7-.33,11.4.19,17.09a7.69,7.69,0,0,1,0,1l-.24,9.8c0,.5-.14,1-.11,1.48.09,1.69.27,3.37.32,5,0,.77-.3,1.55-.28,2.31,0,2.48.25,5,.26,7.43,0,1.8-.23,3.59-.3,5.4,0,1.37,0,2.74,0,4.12v37.4ZM28.62,76c-1.18,2.15-2.32,4.31-3.37,6.52-.89,1.9-1.66,3.86-2.41,5.81-.51,1.31-.92,2.65-1.3,4A3.49,3.49,0,0,0,22,95.1c.51.87.86,1.84,1.32,2.75,1.32,2.59,2.61,5.2,4,7.74a23.62,23.62,0,0,0,2.21,2.9c.07.1.29.2.35.16s.37-.3.36-.44c-.18-1.48.59-2.8.58-4.33-.11-9.71,0-19.42,0-29.13,0-.37,0-.73-.06-1.1l-.4-.16A26.15,26.15,0,0,0,28.62,76Z"/>
                <path class="cls-3"
                      d="M56.77,2.51c-10.36-.11-19.41,8.82-19.12,20a19.31,19.31,0,0,0,38.61-.35C76.38,11.29,67.5,2.21,56.77,2.51Z"/>
            </g>
        </g>
    </g>
</svg>
