<svg xmlns="http://www.w3.org/2000/svg" viewBox="0 0 14.17 11.84"><defs><style>.cls-1,.cls-2{fill:#fff;}.cls-1,.cls-3{fill-rule:evenodd;}.cls-3,.cls-4{fill:none;stroke:#fff;stroke-linecap:square;stroke-miterlimit:10;stroke-width:0.14px;}.cls-3{stroke-dasharray:0.2 0.37 0.2 0.37;}.cls-4{stroke-dasharray:0.2 0.38 0.2 0.38;}</style></defs><g id="Ebene_2" data-name="Ebene 2"><g id="Ebene_1-2" data-name="Ebene 1"><path class="cls-1" d="M1.06,9.47h-1A.08.08,0,0,1,0,9.4a.66.66,0,0,1,0-.14V5.68A1.59,1.59,0,0,1,1.15,4.11a.39.39,0,0,0,.19-.21C1.71,3,2.07,2,2.43,1.09A1.53,1.53,0,0,1,4,0h6.15a1.51,1.51,0,0,1,1.56,1.08q.55,1.39,1.08,2.79a.42.42,0,0,0,.29.27,1.53,1.53,0,0,1,1.06,1.4c0,1.27,0,2.55,0,3.83a.58.58,0,0,1,0,.1h-1a.08.08,0,0,0-.08.07v.52c0,.24,0,.48,0,.72a1,1,0,0,1-1,1,1,1,0,0,1-1-1c0-.4,0-.8,0-1.22a.08.08,0,0,0-.08-.07H3.24a.08.08,0,0,0-.08.07c0,.42,0,.83,0,1.24a1,1,0,0,1-.56.92,1,1,0,0,1-1.08-.11,1,1,0,0,1-.38-.83c0-.4,0-.8,0-1.23A.09.09,0,0,0,1.06,9.47ZM11.71,4.06A.08.08,0,0,0,11.78,4c-.32-.84-.62-1.65-.92-2.47A.73.73,0,0,0,10.12,1H4.06a.71.71,0,0,0-.74.51c-.22.58-.44,1.15-.65,1.73-.09.24-.18.49-.28.74a.09.09,0,0,0,.08.11ZM13,6.18A1.07,1.07,0,0,0,12,5.1a1.09,1.09,0,0,0,0,2.17A1.07,1.07,0,0,0,13,6.18Zm-11.9,0a1.07,1.07,0,0,0,1,1.08,1.09,1.09,0,0,0,0-2.17A1.07,1.07,0,0,0,1.14,6.19Z"/><path class="cls-1" d="M10.72,4.8a.79.79,0,0,1,0-.13.93.93,0,0,1,0,.13V6c0,.24,0,.49,0,.74a.16.16,0,0,0,0,.1c.12-.2-.55-.63-.44-.82.23-.4,1.09-.6,1.08-1.06a1.47,1.47,0,0,0-.61-1.28.73.73,0,0,0-.5-.16c-.52,0-1,0-1.57,0a1.18,1.18,0,0,0-1,.47,1.6,1.6,0,0,0-.35,1.17,3,3,0,0,0,.68,1.62s0,0,0,0l0,0V5c0-.11,0-.22,0-.33h0s0,0,0,.08V5.5c0,.85,0,1.7,0,2.56"/><path class="cls-1" d="M9.43,7.29V7.21H9.6v.14"/><path class="cls-1" d="M10.52,2.26a1,1,0,0,0-1-1,1,1,0,1,0-.05,2A1,1,0,0,0,10.52,2.26Z"/><line class="cls-2" x1="11.78" y1="4.07" x2="2.39" y2="4.07"/><path class="cls-2" d="M11.78,4.11H2.39a0,0,0,1,1,0-.08h9.39a0,0,0,1,1,0,.08Z"/><path class="cls-3" d="M3.61,4.81a.53.53,0,0,0,0-.12.56.56,0,0,0,0,.12c0,.37,0,.12,0,.49s0-.63,0-.39A.1.1,0,0,1,3.5,5c-.11-.18-.23.74-.34.55C3,5.18,2.83,5.41,2.84,5a1.49,1.49,0,0,1,.62-1.21.8.8,0,0,1,.47-.15c.49,0,1,0,1.46,0a1.07,1.07,0,0,1,.89.44,1.5,1.5,0,0,1,.33,1.08c0,.58-.3,0-.64.42a.43.43,0,0,0,0,.05l0,0V5c0-.1,0-.2,0-.3h0a.15.15,0,0,0,0,.07v.67"/><path class="cls-4" d="M3.79,2.36a.94.94,0,0,1,.9-.92.92.92,0,1,1,0,1.84A.93.93,0,0,1,3.79,2.36Z"/></g></g></svg>