<svg xmlns="http://www.w3.org/2000/svg" viewBox="0 0 8.94 7.19"><defs><style>.cls-1,.cls-2{fill:#fff;}.cls-1{fill-rule:evenodd;}</style></defs><g id="Ebene_2" data-name="Ebene 2"><g id="Ebene_1-2" data-name="Ebene 1"><path class="cls-1" d="M3.56,5.39h-.4l0,0V3.83a.65.65,0,0,1,.47-.64.14.14,0,0,0,.08-.09L4.13,2a.62.62,0,0,1,.65-.44q1.26,0,2.52,0A.63.63,0,0,1,7.94,2c.15.38.3.76.44,1.14a.15.15,0,0,0,.12.11.66.66,0,0,1,.44.57V5.34s0,0,0,0H8.5a0,0,0,0,0,0,0v.5a.4.4,0,0,1-.41.43.41.41,0,0,1-.42-.43V5.43s0,0,0,0H4.46s0,0,0,0v.5a.41.41,0,0,1-.24.38.4.4,0,0,1-.59-.38c0-.17,0-.33,0-.51A0,0,0,0,0,3.56,5.39ZM7.93,3.17s0,0,0,0c-.13-.35-.26-.68-.38-1a.29.29,0,0,0-.3-.21H4.79a.29.29,0,0,0-.3.21l-.27.71c0,.1-.07.2-.11.31s0,0,0,0ZM8.47,4a.43.43,0,0,0-.42-.44A.44.44,0,0,0,7.61,4a.43.43,0,1,0,.86,0ZM3.59,4A.44.44,0,0,0,4,4.48.44.44,0,0,0,4.46,4,.44.44,0,0,0,4,3.6.44.44,0,0,0,3.59,4Z"/><path class="cls-1" d="M7.52,3.47a.17.17,0,0,1,0-.05.43.43,0,0,0,0,.05V4c0,.1,0,.2,0,.3a.08.08,0,0,0,0,0c0-.08-.22-.25-.18-.33s.45-.25.45-.44A.61.61,0,0,0,7.59,3,.31.31,0,0,0,7.38,3H6.74a.48.48,0,0,0-.4.19.68.68,0,0,0-.14.48,1.22,1.22,0,0,0,.28.66s0,0,0,0h0V3.56a.59.59,0,0,1,0-.13h0v0c0,.1,0,.2,0,.3v1"/><path class="cls-1" d="M7,4.49v0h.07v0"/><path class="cls-1" d="M7.44,2.43A.41.41,0,1,0,7,2.84.42.42,0,0,0,7.44,2.43Z"/><line class="cls-2" x1="7.96" y1="3.17" x2="4.11" y2="3.17"/><path class="cls-2" d="M8,3.19H4.11a0,0,0,0,1,0,0H8S8,3.19,8,3.19Z"/><g id="XFq8vc.tif"><path class="cls-2" d="M2.53,5.59v.5c0,.24,0,.48,0,.72a.76.76,0,0,1,0,.15.37.37,0,0,1-.23.21.31.31,0,0,1-.31,0,.33.33,0,0,1-.15-.29V4.44a.3.3,0,0,0,0-.1.12.12,0,0,0-.19,0,.22.22,0,0,0-.05.14v2.4a.28.28,0,0,1,0,.13.33.33,0,0,1-.3.2A.31.31,0,0,1,1,7.11a.34.34,0,0,1-.12-.28c0-.44,0-.87,0-1.31s0-.88,0-1.31A.15.15,0,0,0,.81,4.1,1.09,1.09,0,0,1,.64,4L.5,3.81.37,3.64l0-.06L.26,3.47.18,3.34l0-.09s0-.07,0-.11A.84.84,0,0,1,0,3a.63.63,0,0,1,0-.45l.08-.18.07-.16L.32,2l.1-.17.16-.2A.82.82,0,0,1,.9,1.41a1.3,1.3,0,0,1,.34-.08,4.08,4.08,0,0,1,.7,0l.33,0,.22,0a1,1,0,0,0,.35,0,1.27,1.27,0,0,0,.28-.06,0,0,0,0,0,0,0,.34.34,0,0,0,.06-.12A1.67,1.67,0,0,0,3.28,1c0-.08.05-.16.08-.24L3.42.54a.36.36,0,0,1,0-.09A.18.18,0,0,1,3.53.37a.33.33,0,0,1,.29,0,.26.26,0,0,1,.12.27s0,.08,0,.12l0,.15c0,.06,0,.11-.05.16a.5.5,0,0,1,0,.13c0,.09-.07.18-.1.26s-.07.15-.1.21a.29.29,0,0,1-.14.13l-.08,0-.24.07L2.86,2H2.58s-.05,0-.05,0a.91.91,0,0,1,0,.17v.55a4.69,4.69,0,0,0,0,.53v0c0,.1,0,.21,0,.31v0c0,.06,0,.11,0,.16s0,.05,0,.07,0,.16,0,.23,0,.12,0,.17v1.3ZM.81,2.29c0,.07-.07.13-.1.2l-.08.18,0,.13a.08.08,0,0,0,0,.08A.36.36,0,0,0,.65,3l.12.24.07.09h0v0s0-.08,0-.13V2.22h0Z"/><path class="cls-2" d="M1.69,0a.62.62,0,0,0-.6.62A.61.61,0,0,0,2.3.61.61.61,0,0,0,1.69,0Z"/></g></g></g></svg>