<svg xmlns="http://www.w3.org/2000/svg" viewBox="0 0 13.39 13.39"><g id="Ebene_2" data-name="Ebene 2"><g id="Ebene_1-2" data-name="Ebene 1"><path d="M6.33,0h.73l.05,0c.29,0,.58.06.87.11A6.69,6.69,0,1,1,.1,7.85c0-.24-.07-.49-.1-.74V6.28a.5.5,0,0,0,0-.12A5.8,5.8,0,0,1,.48,4.23,6.61,6.61,0,0,1,5.57.1C5.82.05,6.08,0,6.33,0ZM3.56,6.37H6.27V3.78L4,3.65A9.64,9.64,0,0,0,3.56,6.37Zm6.27,0a9.53,9.53,0,0,0-.47-2.73l-2.24.13v2.6Zm-6.26.85A9.52,9.52,0,0,0,4,9.74l2.24-.13V7.23Zm3.55,0V9.61l2.24.13a9.27,9.27,0,0,0,.46-2.52ZM3.18,3.53l-.09,0-1-.19a.16.16,0,0,0-.19.07,5.86,5.86,0,0,0-.8,1.72A5.36,5.36,0,0,0,.85,6.37H2.72A11.08,11.08,0,0,1,3.18,3.53Zm7,0a10.67,10.67,0,0,1,.46,2.84h1.87a5.74,5.74,0,0,0-.93-2.85c-.14-.22-.14-.22-.39-.17Zm-7,6.33a10.36,10.36,0,0,1-.45-2.63H.86c0,.15,0,.29.06.42a5.84,5.84,0,0,0,1,2.37.11.11,0,0,0,.15.05L2.48,10Zm7.06,0,.07,0,1,.19a.14.14,0,0,0,.17-.07,5.74,5.74,0,0,0,.89-2.06c.05-.23.08-.47.12-.72H10.68c0,.45-.09.89-.16,1.33S10.33,9.41,10.24,9.86Zm-5.89.69A3.44,3.44,0,0,0,6.27,12.5V10.45Zm2.77,2a3.49,3.49,0,0,0,1.92-2l-1.92-.1ZM6.27,2.94V.88a3.49,3.49,0,0,0-1.92,2Zm.85-2V2.94L9,2.84A3.44,3.44,0,0,0,7.12.89ZM10,2.72l.9-.15A6,6,0,0,0,9.19,1.4ZM2.54,2.57l.77.13c.13,0,.18,0,.23-.12.21-.38.43-.74.64-1.11l.06-.09A6.13,6.13,0,0,0,2.54,2.57ZM4.2,12v0a6.43,6.43,0,0,1-.7-1.22s-.08-.05-.12-.05l-.67.11-.16,0A5.73,5.73,0,0,0,4.2,12Zm5,0a5.71,5.71,0,0,0,1.64-1.15l0,0-.52-.09c-.12,0-.26-.08-.34,0s-.12.2-.18.31Z"/></g></g></svg>