<svg xmlns="http://www.w3.org/2000/svg" viewBox="0 0 105.09 84.58">
    <defs>
        <style>.cls-1,.cls-2{fill:white;}.cls-1{fill-rule:evenodd;}.cls-3{opacity:0.3;}</style>
    </defs>
    <g id="Ebene_2" data-name="Ebene 2">
        <g id="Ebene_1-2" data-name="Ebene 1">
            <path class="cls-1"
                  d="M41.9,63.34H37.2a.37.37,0,0,1-.37-.34c0-.23,0-.45,0-.67q0-8.62,0-17.26a7.67,7.67,0,0,1,5.53-7.58,1.89,1.89,0,0,0,.93-1c1.78-4.51,3.51-9,5.26-13.54,1.4-3.6,3.75-5.23,7.63-5.24H85.79c3.81,0,6.18,1.66,7.56,5.2,1.74,4.47,3.49,9,5.21,13.43a1.88,1.88,0,0,0,1.36,1.32,7.43,7.43,0,0,1,5.14,6.73c0,6.15,0,12.31,0,18.46a4,4,0,0,1-.07.48h-5a.37.37,0,0,0-.37.37v2.47c0,1.16,0,2.31,0,3.47-.07,3-2,5-4.8,5.05a4.8,4.8,0,0,1-5-5c0-1.93,0-3.86,0-5.85a.36.36,0,0,0-.37-.37H52.41a.37.37,0,0,0-.37.37c0,2,0,4,0,5.94a4.68,4.68,0,0,1-2.72,4.47,4.86,4.86,0,0,1-7-4.53c0-1.94,0-3.88,0-6A.38.38,0,0,0,41.9,63.34ZM93.22,37.25a.37.37,0,0,0,.34-.5c-1.51-4.06-3-8-4.44-11.92a3.49,3.49,0,0,0-3.56-2.47H56.34a3.5,3.5,0,0,0-3.57,2.46c-1,2.78-2.07,5.55-3.11,8.33-.44,1.18-.87,2.36-1.33,3.6a.38.38,0,0,0,.35.5ZM99.64,47.5a5.15,5.15,0,0,0-5-5.21,5.22,5.22,0,0,0,0,10.43A5.15,5.15,0,0,0,99.64,47.5Zm-57.38,0a5.16,5.16,0,0,0,5,5.2,5.22,5.22,0,0,0,.09-10.43A5.15,5.15,0,0,0,42.26,47.52Z"/>
            <path class="cls-1"
                  d="M88.47,40.84a3,3,0,0,1,.13-.64,2.43,2.43,0,0,1,.22.64c0,1.93,0,3.87,0,5.79,0,1.21,0,2.41.06,3.61a.64.64,0,0,0,.18.44c.58-.92-2.63-3-2.09-3.94,1.1-1.92,5.25-2.9,5.2-5.12a7.18,7.18,0,0,0-2.93-6.16,3.94,3.94,0,0,0-2.43-.78c-2.52,0-5,.08-7.56,0a5.54,5.54,0,0,0-4.62,2.25,7.73,7.73,0,0,0-1.69,5.65,14.46,14.46,0,0,0,3.27,7.8.57.57,0,0,1,.08.23l.17-.1V50c0-2.7,0-5.39,0-8.09a12,12,0,0,1,.19-1.57h.18c0,.12,0,.24,0,.36,0,1.17,0,2.34,0,3.51q0,6.16,0,12.35"/>
            <path class="cls-1" d="M82.23,52.81c0-.1,0-.2,0-.38l.82.08v.64"/>
            <path class="cls-1" d="M87.49,28.58a4.82,4.82,0,1,0-4.87,4.78A4.84,4.84,0,0,0,87.49,28.58Z"/>
            <line class="cls-2" x1="93.57" y1="37.3" x2="48.32" y2="37.3"/>
            <path class="cls-2"
                  d="M93.57,37.49H48.32a.19.19,0,0,1-.18-.19.18.18,0,0,1,.18-.18H93.57a.18.18,0,0,1,.18.18A.19.19,0,0,1,93.57,37.49Z"/>
            <g id="XFq8vc.tif" class="cls-3">
                <path class="cls-2"
                      d="M29.73,65.67v5.92c0,2.82,0,5.64-.05,8.45a5.36,5.36,0,0,1-.22,1.75,4.06,4.06,0,0,1-2.63,2.51,4,4,0,0,1-3.69-.55,4,4,0,0,1-1.75-3.43q0-14.08,0-28.17a2.81,2.81,0,0,0-.26-1.1A1.41,1.41,0,0,0,19,50.79a2.33,2.33,0,0,0-.61,1.63V79.91c0,.26,0,.52,0,.77A3.52,3.52,0,0,1,18,82.2a4.06,4.06,0,0,1-3.54,2.37,3.7,3.7,0,0,1-2.85-1,4.17,4.17,0,0,1-1.32-3.26c0-5.14,0-10.29,0-15.43s.16-10.28-.09-15.42a1.38,1.38,0,0,0-.67-1.21,18,18,0,0,1-2-1.61,18.41,18.41,0,0,1-1.62-1.8c-.54-.65-1-1.33-1.54-2-.17-.23-.31-.48-.47-.72-.3-.43-.62-.84-.9-1.28s-.58-1-.87-1.56-.42-.74-.6-1.12-.32-.82-.49-1.22C.8,36.37.5,35.81.3,35.22A7.58,7.58,0,0,1,.73,30c.27-.71.6-1.41.91-2.12s.54-1.23.84-1.83c.4-.81.82-1.62,1.26-2.41a18.32,18.32,0,0,1,1.19-1.94c.6-.82,1.26-1.62,1.93-2.39a9.21,9.21,0,0,1,3.68-2.69,16.21,16.21,0,0,1,4-.94,41.26,41.26,0,0,1,8.24-.15c1.29.12,2.58.23,3.87.37.88.1,1.75.27,2.63.4a15.63,15.63,0,0,0,4.1.1,17.4,17.4,0,0,0,3.34-.77.44.44,0,0,0,.26-.2c.25-.48.49-1,.69-1.45.32-.77.62-1.54.9-2.33s.64-1.84.92-2.76.46-1.67.72-2.5a7,7,0,0,1,.44-1.06,1.93,1.93,0,0,1,.9-1,3.6,3.6,0,0,1,3.37.24,3.09,3.09,0,0,1,1.44,3.2c-.09.45-.13.91-.22,1.37s-.28,1.23-.44,1.84-.34,1.23-.53,1.85-.3,1.05-.49,1.56c-.39,1-.79,2-1.22,3-.36.84-.73,1.68-1.17,2.49a3.07,3.07,0,0,1-1.57,1.44c-.33.13-.65.27-1,.38-.95.31-1.89.65-2.85.88a23.41,23.41,0,0,1-3.23.54,33,33,0,0,1-3.3.1c-.44,0-.6.1-.58.56,0,.69.11,1.39.11,2.08,0,2.15,0,4.29,0,6.43s-.12,4.18.07,6.26a2,2,0,0,1,0,.35c0,1.2-.05,2.4-.09,3.59,0,.18,0,.37,0,.54,0,.62.1,1.24.11,1.85,0,.28-.11.57-.1.85,0,.91.09,1.81.1,2.72,0,.66-.09,1.32-.11,2,0,.5,0,1,0,1.51V65.67ZM9.56,26.91c-.43.79-.85,1.58-1.23,2.39s-.61,1.41-.88,2.13c-.19.48-.34,1-.48,1.46a1.27,1.27,0,0,0,.16,1c.19.32.32.68.49,1,.48.95,1,1.9,1.47,2.83a6.92,6.92,0,0,0,.81,1.06s.11.08.13.06.13-.11.13-.16c-.07-.54.22-1,.21-1.58,0-3.56,0-7.12,0-10.67,0-.14,0-.27,0-.4L10.21,26A9.44,9.44,0,0,0,9.56,26.91Z"/>
                <path class="cls-2" d="M19.87,0A7.14,7.14,0,1,0,27,7.21,7.11,7.11,0,0,0,19.87,0Z"/>
            </g>
        </g>
    </g>
</svg>
